<svg width="54" height="54" viewBox="0 0 54 54" fill="none" xmlns="http://www.w3.org/2000/svg">
<path d="M33.9694 49.4691H20.0306C18.9431 49.4683 17.883 49.128 16.9981 48.4957C16.1133 47.8635 15.4478 46.9708 15.0947 45.9422L8.64001 27.0928H45.36L38.9138 45.9422C38.5602 46.9722 37.8935 47.8658 37.0069 48.4982C36.1204 49.1306 35.0584 49.47 33.9694 49.4691Z" fill="#EFD3B4" stroke="#5F363A" stroke-width="3" stroke-linecap="round" stroke-linejoin="round"/>
<path d="M44.7188 27.0928H9.28125C8.74324 27.0998 8.21102 26.9812 7.72689 26.7464C7.24277 26.5117 6.82007 26.1672 6.49241 25.7404C6.16475 25.3136 5.94116 24.8163 5.8394 24.288C5.73765 23.7596 5.76054 23.2148 5.90625 22.6969C8.26031 14.7488 16.8159 8.76657 27 8.76657C37.1841 8.76657 45.7481 14.7488 48.0938 22.6969C48.2395 23.2148 48.2624 23.7596 48.1606 24.288C48.0588 24.8163 47.8353 25.3136 47.5076 25.7404C47.1799 26.1672 46.7572 26.5117 46.2731 26.7464C45.789 26.9812 45.2568 27.0998 44.7188 27.0928Z" fill="#FFFAF0" stroke="#5F363A" stroke-width="3" stroke-linecap="round" stroke-linejoin="round"/>
<path d="M27 15.0609C29.9078 15.0609 32.265 12.7037 32.265 9.79594C32.265 6.88817 29.9078 4.53094 27 4.53094C24.0922 4.53094 21.735 6.88817 21.735 9.79594C21.735 12.7037 24.0922 15.0609 27 15.0609Z" fill="#EC6D5E" stroke="#5F363A" stroke-width="3" stroke-linecap="round" stroke-linejoin="round"/>
</svg>
